<svg width="24" height="24" viewBox="0 0 24 24" fill="none" xmlns="http://www.w3.org/2000/svg">
<path fill-rule="evenodd" clip-rule="evenodd" d="M13.0248 3.69151C15.0366 1.68091 18.2973 1.68069 20.3083 3.69166C22.3189 5.70344 22.3193 8.96435 20.3083 10.9753L17.9753 13.3083C17.6824 13.6012 17.2075 13.6012 16.9146 13.3083C16.6218 13.0154 16.6218 12.5406 16.9146 12.2477L19.2476 9.91466C20.6727 8.48964 20.6729 6.1784 19.2475 4.75217C17.8225 3.32735 15.5115 3.32713 14.0853 4.75232L11.7523 7.08532C11.4594 7.37822 10.9845 7.37822 10.6916 7.08532C10.3988 6.79243 10.3988 6.31756 10.6916 6.02466L13.0248 3.69151Z" fill="#2B3134"/>
<path fill-rule="evenodd" clip-rule="evenodd" d="M11.0417 20.0865C9.02988 22.0971 5.76912 22.0973 3.75815 20.0863C1.74754 18.0746 1.74717 14.8137 3.75815 12.8027L6.09115 10.4697C6.38404 10.1768 6.85891 10.1768 7.15181 10.4697C7.4447 10.7626 7.4447 11.2374 7.15181 11.5303L4.81881 13.8633C3.39378 15.2884 3.39356 17.5996 4.81896 19.0258C6.24394 20.4506 8.55496 20.4509 9.98115 19.0257L12.3141 16.6927C12.607 16.3998 13.0819 16.3998 13.3748 16.6927C13.6677 16.9856 13.6677 17.4604 13.3748 17.7533L11.0417 20.0865Z" fill="#2B3134"/>
<path fill-rule="evenodd" clip-rule="evenodd" d="M15.6403 8.35966C15.9332 8.65256 15.9332 9.12743 15.6403 9.42032L9.42033 15.6403C9.12743 15.9332 8.65256 15.9332 8.35967 15.6403C8.06677 15.3474 8.06677 14.8726 8.35967 14.5797L14.5797 8.35966C14.8726 8.06677 15.3474 8.06677 15.6403 8.35966Z" fill="#2B3134"/>
</svg>
