<svg width="24" height="24" viewBox="0 0 24 24" fill="none" xmlns="http://www.w3.org/2000/svg">
<path fill-rule="evenodd" clip-rule="evenodd" d="M17.084 1.661C16.62 1.791 16.527 1.87 14.848 3.538C13.962 4.419 13.182 5.225 13.115 5.329C12.9325 5.60489 12.8264 5.92427 12.8076 6.25455C12.7888 6.58482 12.858 6.91418 13.008 7.209C13.115 7.426 13.348 7.678 14.736 9.072C15.618 9.959 16.419 10.737 16.516 10.801C16.935 11.081 17.521 11.186 17.989 11.066C18.511 10.932 18.554 10.896 20.272 9.186C21.159 8.303 21.937 7.501 22.001 7.404C22.289 6.973 22.395 6.358 22.261 5.898C22.114 5.39 22.074 5.343 20.386 3.648C19.503 2.761 18.701 1.983 18.604 1.919C18.185 1.639 17.546 1.531 17.084 1.661ZM6.08 2.561C5.02084 2.69194 4.05301 3.22637 3.378 4.053C3.02541 4.5174 2.75918 5.0414 2.592 5.6C2.513 5.893 2.5 6.036 2.5 6.64C2.5 7.248 2.512 7.385 2.593 7.68C3.204 9.918 5.497 11.217 7.705 10.577C8.39186 10.3797 9.01533 10.0065 9.51377 9.49441C10.0122 8.98229 10.3684 8.34895 10.547 7.657C10.639 7.309 10.652 7.183 10.652 6.64C10.652 6.1 10.639 5.97 10.549 5.632C10.298 4.691 9.776 3.91 9.023 3.351C8.1801 2.71898 7.12609 2.43605 6.08 2.561ZM19.279 4.66C20.797 6.177 20.818 6.201 20.818 6.36C20.818 6.519 20.797 6.543 19.27 8.07C17.743 9.597 17.719 9.618 17.56 9.618C17.401 9.618 17.377 9.597 15.85 8.07C14.324 6.543 14.302 6.519 14.302 6.36C14.302 6.201 14.324 6.176 15.821 4.676C16.656 3.839 17.376 3.137 17.42 3.118C17.632 3.023 17.687 3.068 19.279 4.66ZM7.182 4.1C7.746 4.243 8.384 4.67 8.683 5.105C9.019 5.592 9.17 6.071 9.169 6.64C9.1743 6.98345 9.10885 7.32432 8.97672 7.64139C8.8446 7.95846 8.64862 8.24494 8.401 8.483C7.865 9.021 7.212 9.268 6.425 9.231C5.79064 9.21109 5.18845 8.94707 4.744 8.494C4.47258 8.23442 4.26238 7.91764 4.12867 7.56668C3.99496 7.21571 3.9411 6.83938 3.971 6.465C4.00691 5.80842 4.2938 5.19076 4.77234 4.73977C5.25088 4.28878 5.88444 4.03897 6.542 4.042C6.775 4.041 7.043 4.065 7.182 4.1ZM17.054 13.562C16.4703 13.6384 15.9096 13.8383 15.4092 14.1483C14.9089 14.4583 14.4803 14.8714 14.152 15.36C13.6181 16.1534 13.3796 17.109 13.4781 18.0602C13.5766 19.0114 14.0058 19.8979 14.691 20.565C15.2909 21.1586 16.0597 21.5521 16.892 21.6916C17.7243 21.8311 18.5794 21.7097 19.34 21.344C21.203 20.46 22.128 18.278 21.464 16.332C20.832 14.478 18.975 13.312 17.054 13.562ZM3.851 13.862C3.50332 13.955 3.18944 14.1454 2.94637 14.4108C2.70329 14.6762 2.54113 15.0055 2.479 15.36C2.45 15.533 2.44 16.377 2.448 17.88L2.461 20.14L2.556 20.38C2.822 21.049 3.357 21.488 4.04 21.598C4.377 21.652 8.322 21.653 8.696 21.599C9.0566 21.5421 9.39276 21.3812 9.66329 21.1361C9.93381 20.891 10.1269 20.5723 10.219 20.219C10.27 20.021 10.28 19.626 10.28 17.734C10.28 16.233 10.265 15.413 10.235 15.272C10.1618 14.9435 10.0019 14.6406 9.77211 14.3948C9.54228 14.149 9.25082 13.9691 8.928 13.874C8.683 13.806 8.478 13.8 6.361 13.803C4.513 13.805 4.019 13.816 3.851 13.862ZM18.216 15.119C18.958 15.309 19.567 15.804 19.893 16.484C20.108 16.932 20.16 17.16 20.16 17.654C20.16 18.364 19.905 18.98 19.404 19.481C18.863 20.022 18.211 20.269 17.425 20.23C15.554 20.139 14.407 18.159 15.244 16.465C15.573 15.801 16.264 15.254 16.967 15.101C17.38 15.0193 17.8055 15.0255 18.216 15.119ZM8.665 15.417L8.802 15.554L8.791 17.74L8.78 19.927L8.668 20.023L8.556 20.12H4.156L4.058 20.022L3.96 19.924V17.731C3.96 15.355 3.955 15.408 4.174 15.32C4.221 15.301 5.22 15.284 6.394 15.283L8.528 15.28L8.665 15.417Z" fill="#2B3134"/>
</svg>
