<svg width="24" height="24" viewBox="0 0 24 24" fill="none" xmlns="http://www.w3.org/2000/svg">
<path d="M11.9998 2.24628C13.7136 2.24592 15.3969 2.69929 16.8787 3.56031C17.2368 3.76842 17.3585 4.22745 17.1503 4.58559C16.9422 4.94373 16.4832 5.06536 16.1251 4.85725C14.8723 4.12929 13.4491 3.74597 12.0002 3.74628C11.5859 3.74636 11.2501 3.41065 11.25 2.99643C11.2499 2.58222 11.5856 2.24636 11.9998 2.24628Z" fill="#2B3134"/>
<path d="M20.4397 7.12136C20.2316 6.76322 19.7726 6.64159 19.4144 6.8497C19.0563 7.05781 18.9347 7.51684 19.1428 7.87498C19.8707 9.12777 20.2541 10.551 20.2538 11.9999C20.2537 12.4141 20.5894 12.75 21.0036 12.75C21.4178 12.7501 21.7537 12.4144 21.7538 12.0002C21.7541 10.2864 21.3007 8.60312 20.4397 7.12136Z" fill="#2B3134"/>
<path d="M4.85773 16.1259C4.6501 15.7675 4.19123 15.6453 3.83281 15.8529C3.4744 16.0605 3.35216 16.5194 3.55978 16.8778C4.41599 18.3559 5.64416 19.584 7.12218 20.4402C7.4806 20.6479 7.93947 20.5256 8.1471 20.1672C8.35473 19.8088 8.23249 19.3499 7.87407 19.1423C6.6226 18.4173 5.58269 17.3774 4.85773 16.1259Z" fill="#2B3134"/>
<path d="M20.4403 16.8777C20.6479 16.5192 20.5255 16.0604 20.167 15.8528C19.8086 15.6453 19.3497 15.7676 19.1422 16.1261C17.6659 18.6759 14.9449 20.2481 11.9986 20.2538C11.5844 20.2546 11.2492 20.591 11.25 21.0052C11.2508 21.4194 11.5872 21.7546 12.0014 21.7538C15.482 21.7471 18.6964 19.8898 20.4403 16.8777Z" fill="#2B3134"/>
<path d="M8.14719 3.83301C8.35473 4.19148 8.23238 4.65032 7.87391 4.85786C5.32409 6.33414 3.75187 9.05513 3.74625 12.0015C3.74546 12.4157 3.40903 12.7508 2.99482 12.75C2.5806 12.7493 2.24546 12.4128 2.24625 11.9986C2.25289 8.51805 4.11019 5.30368 7.12233 3.55974C7.4808 3.3522 7.93964 3.47455 8.14719 3.83301Z" fill="#2B3134"/>
<path fill-rule="evenodd" clip-rule="evenodd" d="M12 6.24792C8.82321 6.24792 6.24791 8.82322 6.24791 12C6.24791 15.1768 8.82321 17.7521 12 17.7521C15.1768 17.7521 17.7521 15.1768 17.7521 12C17.7521 8.82322 15.1768 6.24792 12 6.24792ZM7.74791 12C7.74791 9.65165 9.65163 7.74792 12 7.74792C14.3484 7.74792 16.2521 9.65165 16.2521 12C16.2521 14.3484 14.3484 16.2521 12 16.2521C9.65163 16.2521 7.74791 14.3484 7.74791 12Z" fill="#2B3134"/>
</svg>
